<mxfile host="app.diagrams.net" modified="2023-04-27T13:27:27.242Z" agent="Mozilla/5.0 (Windows NT 10.0; Win64; x64) AppleWebKit/537.36 (KHTML, like Gecko) Chrome/108.0.0.0 Safari/537.36" version="21.2.3" etag="vj1ABs1FQKZOEMQLGkzF" type="github">
  <diagram name="Страница 1" id="fT2f-Gk4B_cyXBCYnjZ8">
    <mxGraphModel>
      <root>
        <mxCell id="0" />
        <mxCell id="1" parent="0" />
      </root>
    </mxGraphModel>
  </diagram>
</mxfile>
